<svg height="512" viewBox="0 0 58 52" width="512" xmlns="http://www.w3.org/2000/svg"><g id="Page-1" fill="none" fill-rule="evenodd"><g id="003---Gems" fill-rule="nonzero"><path id="Shape" d="m28.71 37.54 12.29 14.46 17-20-5.91-8h-7.39-4.01l-7.69 4z" fill="#3b97d3"/><path id="Shape" d="m38 7h-10-10-10l-8 11 23 26 5.71-6.46 4.39-4.96.52-.58 7.07-8 5.31-6z" fill="#fb7b76"/><path id="Shape" d="m18 7-6 11h-12l8-11z" fill="#ff5364"/><path id="Shape" d="m46 18h-12l-6-11h10z" fill="#ff5364"/><path id="Shape" d="m34 18-11 26-6.35-15-2.11-5-2.54-6z" fill="#df4d60"/><path id="Shape" d="m49.13 32h-15.51l7.07-8h4.01z" fill="#84b5cb"/><path id="Shape" d="m58 32h-8.87l-4.43-8h7.39z" fill="#2980ba"/><path id="Shape" d="m49.13 32-8.13 20-7.9-19.42.52-.58z" fill="#2980ba"/><g fill="#f0c419"><path id="Shape" d="m38 4c-.5522847 0-1-.44771525-1-1v-2c0-.55228475.4477153-1 1-1s1 .44771525 1 1v2c0 .55228475-.4477153 1-1 1z"/><path id="Shape" d="m42 6c-.4408769.00054029-.8300902-.28770993-.9581268-.70958597-.1280366-.42187603.0353166-.87782656.4021268-1.12241403l1.845-1.23c.2967641-.21121805.6849045-.24436455 1.0131856-.08652425.328281.1578403.5447708.48169801.5651158.84538483.0203451.36368682-.158673.70966968-.4673014.90313942l-1.844 1.23c-.1644062.1104823-.3579202.16965025-.556.17z"/><path id="Shape" d="m22.845 51c-.5522847 0-1-.4477153-1-1v-2c0-.5522847.4477153-1 1-1s1 .4477153 1 1v2c0 .5522847-.4477153 1-1 1z"/><path id="Shape" d="m17 48.23c-.4408769.0005403-.8300902-.2877099-.9581268-.709586-.1280366-.421876.0353166-.8778265.4021268-1.122414l1.845-1.23c.297245-.1984611.6777884-.2232683.9982832-.0650772.3204948.1581912.5322502.4753478.5555.8320001.0232498.3566522-.1455382.6986161-.4427832.8970771l-1.844 1.23c-.1646302.1097754-.3581271.168242-.556.168z"/></g></g></g></svg>